# xmcd CD database file
#
# Track frame offsets:
#	150
#	36845
#	49758
#	75400
#	102950
#	119153
#	147339
#	165315
#	194741
#	204007
#	225123
#	236194
#	262339
#
# Disc length: 3729 seconds
#
# Revision: 0
# Processed by: cddbd v1.5.2PL0 Copyright (c) Steve Scherf et al.
# Submitted via: CDex 1.70beta2
#
DISCID=b10e8f0d
DTITLE=Marta Raviglia Quartet - SPIRAL TALES
DYEAR=2007
DGENRE=Jazz
TTITLE0=SAI AWAY
TTITLE1=PASSATO
TTITLE2=SURPRISES
TTITLE3=PRIMA DI ENTRARE
TTITLE4=CIRCLE
TTITLE5=LULLABY
TTITLE6=TWELVE FOR A SUNDAY MORNING
TTITLE7=TRIAD
TTITLE8=THE PROCLAIMED DEATH OF WORDS
TTITLE9=BIG FISH
TTITLE10=HERE I AM
TTITLE11=BACK HOME
TTITLE12=SAIL AWAY Radio Edit
EXTD=YEAR: 2007
EXTT0=
EXTT1=
EXTT2=
EXTT3=
EXTT4=
EXTT5=
EXTT6=
EXTT7=
EXTT8=
EXTT9=
EXTT10=
EXTT11=
EXTT12=
PLAYORDER=
